<?xml version="1.0" encoding="UTF-8" standalone="no"?>
<!-- Created with Inkscape (http://www.inkscape.org/) -->

<svg
   xmlns:dc="http://purl.org/dc/elements/1.1/"
   xmlns:cc="http://creativecommons.org/ns#"
   xmlns:rdf="http://www.w3.org/1999/02/22-rdf-syntax-ns#"
   xmlns:svg="http://www.w3.org/2000/svg"
   xmlns="http://www.w3.org/2000/svg"
   xmlns:sodipodi="http://sodipodi.sourceforge.net/DTD/sodipodi-0.dtd"
   xmlns:inkscape="http://www.inkscape.org/namespaces/inkscape"
   width="630.00031"
   height="285.0022"
   viewBox="0 0 630.00031 285.00218"
   id="svg2"
   version="1.1"
   inkscape:version="0.91 r13725"
   sodipodi:docname="dene_back.svg"
   inkscape:export-filename="/home/dene/dene.png"
   inkscape:export-xdpi="400"
   inkscape:export-ydpi="400">
  <defs
     id="defs4" />
  <sodipodi:namedview
     id="base"
     pagecolor="#ffffff"
     bordercolor="#666666"
     borderopacity="1.0"
     inkscape:pageopacity="0.0"
     inkscape:pageshadow="2"
     inkscape:zoom="0.70710678"
     inkscape:cx="184.98734"
     inkscape:cy="156.68296"
     inkscape:document-units="px"
     inkscape:current-layer="layer1"
     showgrid="true"
     inkscape:snap-object-midpoints="true"
     inkscape:snap-text-baseline="false"
     inkscape:snap-center="true"
     inkscape:object-nodes="true"
     inkscape:snap-grids="true"
     inkscape:object-paths="true"
     inkscape:snap-intersection-paths="true"
     showguides="true"
     inkscape:guide-bbox="true"
     inkscape:snap-nodes="true"
     inkscape:snap-page="false"
     inkscape:snap-bbox="false"
     inkscape:snap-to-guides="false"
     inkscape:snap-others="true"
     inkscape:snap-smooth-nodes="true"
     inkscape:window-width="1920"
     inkscape:window-height="1027"
     inkscape:window-x="1920"
     inkscape:window-y="0"
     inkscape:window-maximized="1"
     fit-margin-top="0"
     fit-margin-left="0"
     fit-margin-right="0"
     fit-margin-bottom="0"
     units="px"
     inkscape:snap-midpoints="true"
     inkscape:snap-bbox-midpoints="false"
     inkscape:bbox-nodes="true">
    <inkscape:grid
       type="xygrid"
       id="grid4136"
       originx="1.9910462e-012"
       originy="0.0021896562" />
  </sodipodi:namedview>
  <metadata
     id="metadata7">
    <rdf:RDF>
      <cc:Work
         rdf:about="">
        <dc:format>image/svg+xml</dc:format>
        <dc:type
           rdf:resource="http://purl.org/dc/dcmitype/StillImage" />
        <dc:title></dc:title>
      </cc:Work>
    </rdf:RDF>
  </metadata>
  <g
     inkscape:label="レイヤー 1"
     inkscape:groupmode="layer"
     id="layer1"
     transform="translate(0,-767.36221)">
    <path
       style="opacity:1;fill:#41c0f8;fill-opacity:1;fill-rule:evenodd;stroke:none;stroke-width:5;stroke-linecap:butt;stroke-linejoin:round;stroke-miterlimit:4;stroke-dasharray:none;stroke-opacity:1"
       d="m 470,977.36437 c 0,-41.4214 -33.57864,-75 -75,-75 l -25,0 c 0,-74.5585 -60.44156,-135 -135,-135 -74.55844,0 -135,60.4415 -135,135 l -25,0 c -41.42136,0 -75,33.5786 -75,75 -1e-5,41.42133 33.57864,75.00003 75,75.00003 41.42136,0 75.00001,-33.5787 75,-75.00003 l 0,-75 c 0,-46.9442 38.0558,-85 85,-85 46.9442,0 85,38.0558 85,85 l 0,75 c -10e-6,41.42133 33.57864,75.00003 75,75.00003 l 10e-6,-50 C 381.19289,1002.3644 370,991.17149 370,977.36437 c 0,-13.8071 11.19289,-25 25.00001,-25 13.80711,0 24.99999,11.1929 24.99999,25 l 0,75.00003 50,0 z"
       id="path4304"
       inkscape:connector-curvature="0"
       sodipodi:nodetypes="cccsccssccsccccssc" />
    <path
       inkscape:connector-curvature="0"
       style="opacity:1;fill:#41c0f8;fill-opacity:1;fill-rule:evenodd;stroke:none;stroke-width:1;stroke-linecap:butt;stroke-linejoin:round;stroke-miterlimit:4;stroke-dasharray:none;stroke-opacity:1"
       d="m 252.68682,959.69485 c -9.75805,-9.76808 -25.58716,-9.77628 -35.35532,-0.018 -9.76815,9.75787 -9.77635,25.58677 -0.0183,35.35487 9.75805,9.76798 25.58716,9.77618 35.35532,0.018 l 35.33701,35.37328 c -10.64539,10.2335 -28.01844,22.1122 -53.00553,21.9392 -41.42136,0 -75.00001,-33.5783 -75,-74.99908 0,-41.42087 33.57864,-74.99905 75,-74.99905 41.42136,0 75,33.57818 75,74.99905 l 0,4.99994 -95,0 0,-9.99987 44.49772,0 c -0.99446,-4.91814 -3.49,-9.37239 -6.8109,-12.66834 z"
       id="path4190-1-1-1-9"
       sodipodi:nodetypes="cscccssccccccc" />
    <path
       style="fill:#ffe128;fill-opacity:1;fill-rule:evenodd;stroke:none;stroke-width:0.25304839;stroke-linejoin:round;stroke-miterlimit:4;stroke-dasharray:none;stroke-opacity:1"
       d="m 100,977.36437 a 25.000003,25.000004 0 0 1 -25,25.00003 25.000003,25.000004 0 0 1 -25,-25.00003 25.000003,25.000004 0 0 1 25,-25 25.000003,25.000004 0 0 1 25,25 z"
       id="path4153-8"
       inkscape:connector-curvature="0" />
    <path
       inkscape:connector-curvature="0"
       style="opacity:1;fill:#41c0f8;fill-opacity:1;fill-rule:evenodd;stroke:none;stroke-width:1;stroke-linecap:butt;stroke-linejoin:round;stroke-miterlimit:4;stroke-dasharray:none;stroke-opacity:1"
       d="m 572.6868,959.69515 c -9.758,-9.76808 -25.5871,-9.77628 -35.3553,-0.018 -9.7681,9.75787 -9.7763,25.58677 -0.018,35.35487 9.7581,9.76798 25.5872,9.77618 35.3553,0.018 l 35.337,35.37328 c -10.6454,10.2335 -28.0184,22.1122 -53.0055,21.9392 -41.4214,0 -75,-33.5783 -75,-74.99908 0,-41.42087 33.5786,-74.99905 75,-74.99905 41.4214,0 75,33.57818 75,74.99905 l 0,4.99994 -95,0 0,-9.99987 44.4977,0 c -0.9944,-4.91814 -3.49,-9.37239 -6.8109,-12.66834 z"
       id="path4190-1-1-1-9-1"
       sodipodi:nodetypes="cscccssccccccc" />
  </g>
</svg>
